<svg width="124" height="32" viewBox="0 0 124 32" fill="none" xmlns="http://www.w3.org/2000/svg">
<path id="Vector" fill-rule="evenodd" clip-rule="evenodd" d="M104.456 32H105.104V28.9138H105.114L106.189 32H106.747L107.821 28.9138H107.832V32H108.479V28H107.536L106.495 31.1289H106.485L105.417 28H104.463V32H104.456ZM100.881 28.6044H102.107V32H102.786V28.6044H104.019V28H100.884V28.6044H100.881ZM93 32L124 0H105.341L74.3449 32H93ZM88.5532 13.9342H51.0294C39.5939 13.9342 37.5927 14.56 32.6912 19.616C28.1101 24.3484 20.6667 32 20.6667 32H36.921L40.7994 27.9964C43.3483 25.3653 44.6641 25.0916 50.0168 25.0916H77.7446L88.5532 13.9342ZM32.1918 17.3369C28.8093 20.6329 21.4451 28.0142 17.4771 32H0C0 32 14.0017 17.5858 21.7861 9.67822C29.8048 1.79911 33.8038 0.0035536 48.5116 0.0035536H102.052L90.458 11.9716H49.6034C39.2667 11.968 36.9451 12.7076 32.1918 17.3369Z" fill="white"/>
</svg>
